<?xml version="1.0" encoding="utf-8"?>
<!-- Generator: Adobe Illustrator 16.0.0, SVG Export Plug-In . SVG Version: 6.00 Build 0)  -->
<!DOCTYPE svg PUBLIC "-//W3C//DTD SVG 1.1//EN" "http://www.w3.org/Graphics/SVG/1.1/DTD/svg11.dtd">
<svg version="1.1" id="Camada_1" xmlns="http://www.w3.org/2000/svg" xmlns:xlink="http://www.w3.org/1999/xlink" x="0px" y="0px"
	 width="43.543px" height="44px" viewBox="0 0 43.543 44" enable-background="new 0 0 43.543 44" xml:space="preserve">
<g>
	
		<linearGradient id="SVGID_1_" gradientUnits="userSpaceOnUse" x1="292.6113" y1="-202.9321" x2="292.6113" y2="-246.4751" gradientTransform="matrix(1 0 0 -1 -270.8398 -202.5996)">
		<stop  offset="0" style="stop-color:#FF0844"/>
		<stop  offset="1" style="stop-color:#FFB199"/>
	</linearGradient>
	<path fill="url(#SVGID_1_)" d="M21.771,0.229C9.748,0.229,0,9.976,0,22c0,5.471,2.023,10.466,5.355,14.291
		C6.7,22.324,13.387,12.008,21.684,12.008c8.333,0,15.043,10.405,16.347,24.467c3.427-3.85,5.512-8.916,5.512-14.475
		C43.542,9.976,33.795,0.229,21.771,0.229z M21.684,23.111c-5.959,0-11.079,6.652-13.247,16.093
		c3.686,2.858,8.31,4.567,13.335,4.567c4.958,0,9.526-1.662,13.187-4.451C32.805,29.818,27.668,23.111,21.684,23.111z M21.684,14.23
		c-6.411,0-11.852,8.02-13.691,19.051c2.988-7.475,8.01-12.392,13.691-12.392c5.682,0,10.703,4.917,13.692,12.392
		C33.537,22.25,28.095,14.23,21.684,14.23z"/>
</g>
</svg>
