<?xml version="1.0" encoding="utf-8"?>
<!-- Generator: Adobe Illustrator 16.0.0, SVG Export Plug-In . SVG Version: 6.00 Build 0)  -->
<!DOCTYPE svg PUBLIC "-//W3C//DTD SVG 1.1//EN" "http://www.w3.org/Graphics/SVG/1.1/DTD/svg11.dtd">
<svg version="1.1" id="Camada_1" xmlns="http://www.w3.org/2000/svg" xmlns:xlink="http://www.w3.org/1999/xlink" x="0px" y="0px"
	 width="139.964px" height="44px" viewBox="60.036 0 139.964 44" enable-background="new 60.036 0 139.964 44" xml:space="preserve"
	>
<g>
	<g>
		<path fill="#222222" d="M61.515,30.303h8.577v1.24H60.036V14.175h1.479V30.303z"/>
		<path fill="#222222" d="M77.082,31.781c-0.843,0-1.618-0.157-2.326-0.471c-0.708-0.314-1.318-0.752-1.831-1.313
			c-0.513-0.562-0.913-1.228-1.199-1.998s-0.429-1.618-0.429-2.541v-0.513c0-0.994,0.149-1.896,0.447-2.701
			c0.298-0.807,0.702-1.495,1.21-2.064c0.509-0.568,1.096-1.008,1.76-1.318c0.664-0.31,1.366-0.465,2.105-0.465
			c0.819,0,1.546,0.147,2.183,0.441c0.636,0.294,1.171,0.704,1.604,1.229s0.761,1.149,0.984,1.873
			c0.223,0.723,0.334,1.514,0.334,2.375v0.869h-9.208v0.274c0,0.708,0.107,1.374,0.322,1.998s0.517,1.167,0.907,1.629
			c0.39,0.461,0.855,0.824,1.396,1.091c0.541,0.268,1.141,0.399,1.801,0.399c0.764,0,1.438-0.14,2.022-0.417
			c0.584-0.278,1.115-0.725,1.592-1.336l0.895,0.68c-0.215,0.311-0.463,0.604-0.746,0.883c-0.283,0.279-0.61,0.521-0.984,0.729
			s-0.795,0.369-1.264,0.488C78.188,31.721,77.663,31.781,77.082,31.781z M76.82,19.615c-0.541,0-1.042,0.104-1.503,0.31
			c-0.461,0.207-0.869,0.501-1.223,0.883c-0.354,0.382-0.644,0.841-0.871,1.378c-0.227,0.537-0.38,1.13-0.459,1.782h7.741v-0.153
			c-0.016-0.541-0.103-1.064-0.262-1.568c-0.159-0.505-0.392-0.953-0.698-1.342c-0.306-0.389-0.686-0.702-1.139-0.936
			C77.953,19.732,77.424,19.615,76.82,19.615z"/>
		<path fill="#222222" d="M92.363,31.543c-0.08-0.223-0.141-0.495-0.185-0.816c-0.044-0.322-0.074-0.65-0.09-0.984
			c-0.214,0.277-0.469,0.541-0.763,0.787s-0.624,0.462-0.99,0.645c-0.366,0.184-0.767,0.33-1.205,0.441s-0.911,0.167-1.419,0.167
			c-0.628,0-1.199-0.093-1.712-0.274c-0.513-0.183-0.95-0.439-1.312-0.77c-0.362-0.332-0.642-0.719-0.841-1.163
			c-0.199-0.445-0.298-0.931-0.298-1.455c0-0.628,0.135-1.194,0.405-1.699c0.271-0.506,0.66-0.935,1.169-1.289
			c0.509-0.354,1.127-0.624,1.854-0.812c0.728-0.188,1.545-0.279,2.452-0.279h2.648v-1.467c0-0.922-0.284-1.648-0.853-2.177
			c-0.568-0.529-1.397-0.793-2.487-0.793c-0.501,0-0.962,0.067-1.384,0.203c-0.422,0.136-0.785,0.322-1.091,0.561
			c-0.306,0.239-0.545,0.515-0.716,0.829c-0.171,0.314-0.256,0.65-0.256,1.008l-1.432-0.012c0-0.485,0.119-0.955,0.358-1.408
			c0.238-0.453,0.575-0.857,1.008-1.21c0.434-0.354,0.955-0.638,1.563-0.853c0.608-0.215,1.283-0.322,2.022-0.322
			c0.684,0,1.314,0.087,1.891,0.263c0.577,0.175,1.072,0.437,1.485,0.787c0.413,0.35,0.735,0.787,0.966,1.312
			c0.23,0.525,0.346,1.137,0.346,1.835v6.25c0,0.223,0.008,0.453,0.024,0.692c0.016,0.237,0.042,0.469,0.078,0.69
			c0.036,0.224,0.078,0.437,0.125,0.64c0.048,0.202,0.104,0.379,0.167,0.53v0.144L92.363,31.543L92.363,31.543z M87.878,30.518
			c0.517,0,0.996-0.065,1.438-0.197c0.441-0.131,0.841-0.313,1.199-0.543c0.358-0.229,0.668-0.498,0.93-0.805
			c0.263-0.307,0.473-0.639,0.632-0.996v-2.84h-2.445c-0.731,0-1.386,0.066-1.962,0.197c-0.576,0.131-1.063,0.32-1.461,0.566
			s-0.702,0.547-0.913,0.899c-0.211,0.354-0.316,0.755-0.316,1.199c0,0.351,0.068,0.679,0.203,0.983
			c0.135,0.307,0.328,0.572,0.579,0.8c0.251,0.227,0.555,0.405,0.912,0.536C87.031,30.451,87.433,30.518,87.878,30.518z"/>
		<path fill="#222222" d="M97.928,18.637l0.047,2.207c0.223-0.366,0.479-0.7,0.77-1.002c0.291-0.302,0.614-0.561,0.972-0.775
			c0.358-0.214,0.745-0.379,1.158-0.495c0.413-0.115,0.852-0.173,1.313-0.173c0.645,0,1.221,0.087,1.729,0.263
			c0.509,0.175,0.939,0.453,1.295,0.835c0.354,0.381,0.624,0.873,0.811,1.473c0.188,0.6,0.28,1.326,0.28,2.176v8.397h-1.419v-8.41
			c0-0.667-0.072-1.224-0.215-1.669c-0.145-0.445-0.348-0.803-0.607-1.074c-0.264-0.271-0.584-0.463-0.961-0.579
			c-0.377-0.115-0.798-0.173-1.259-0.173c-0.509,0-0.97,0.085-1.384,0.256s-0.779,0.4-1.098,0.686
			c-0.318,0.286-0.592,0.614-0.823,0.984s-0.414,0.75-0.549,1.139v8.839h-1.419V18.637H97.928z"/>
		<path fill="#222222" d="M115.541,24.852h-3.364v6.691h-3.018V14.175h6.106c0.994,0,1.881,0.113,2.66,0.34s1.438,0.561,1.975,1.002
			s0.943,0.988,1.223,1.641c0.277,0.652,0.418,1.407,0.418,2.266c0,1.161-0.279,2.133-0.842,2.917
			c-0.561,0.783-1.342,1.386-2.344,1.808l3.899,7.24v0.154h-3.231L115.541,24.852z M112.177,22.429h3.103
			c0.541,0,1.014-0.071,1.419-0.214s0.743-0.342,1.015-0.597c0.27-0.254,0.473-0.557,0.607-0.906
			c0.136-0.35,0.203-0.736,0.203-1.157c0-0.445-0.063-0.849-0.19-1.211c-0.128-0.362-0.321-0.672-0.585-0.93
			c-0.262-0.259-0.598-0.458-1.008-0.597c-0.409-0.139-0.9-0.208-1.473-0.208h-3.091V22.429z"/>
		<path fill="#222222" d="M129.32,31.781c-0.955,0-1.813-0.159-2.577-0.477c-0.765-0.318-1.411-0.757-1.944-1.313
			c-0.531-0.558-0.941-1.218-1.229-1.979c-0.287-0.764-0.43-1.587-0.43-2.47v-0.478c0-1.019,0.15-1.938,0.453-2.761
			c0.303-0.823,0.715-1.523,1.24-2.1c0.523-0.576,1.143-1.022,1.854-1.336s1.479-0.471,2.297-0.471c0.938,0,1.754,0.157,2.445,0.471
			s1.264,0.753,1.719,1.318c0.453,0.564,0.791,1.236,1.014,2.016c0.223,0.779,0.334,1.634,0.334,2.564v1.239h-8.434
			c0.039,0.501,0.146,0.962,0.315,1.384s0.403,0.785,0.697,1.092c0.295,0.307,0.643,0.547,1.044,0.723
			c0.4,0.175,0.855,0.262,1.365,0.262c0.717,0,1.339-0.143,1.867-0.429s0.987-0.681,1.377-1.183l1.563,1.492
			c-0.207,0.311-0.463,0.609-0.771,0.899c-0.306,0.291-0.664,0.549-1.072,0.774c-0.409,0.229-0.873,0.41-1.391,0.549
			C130.545,31.712,129.964,31.781,129.32,31.781z M128.975,20.724c-0.795,0-1.438,0.278-1.927,0.835s-0.802,1.332-0.937,2.326h5.521
			V23.67c-0.023-0.382-0.085-0.749-0.185-1.104c-0.101-0.354-0.253-0.667-0.46-0.942c-0.206-0.274-0.475-0.493-0.805-0.656
			C129.854,20.805,129.451,20.724,128.975,20.724z"/>
		<path fill="#222222" d="M135.714,24.994c0-0.979,0.117-1.873,0.353-2.684c0.233-0.811,0.572-1.507,1.014-2.087
			s0.977-1.03,1.604-1.348c0.629-0.318,1.336-0.477,2.125-0.477c0.715,0,1.346,0.124,1.891,0.37c0.544,0.246,1.02,0.6,1.425,1.062
			v-6.608h2.897v18.322h-2.623l-0.144-1.336c-0.414,0.501-0.905,0.89-1.474,1.163c-0.569,0.273-1.234,0.411-1.998,0.411
			c-0.779,0-1.48-0.165-2.105-0.495c-0.623-0.33-1.154-0.785-1.593-1.365c-0.437-0.581-0.774-1.271-1.015-2.07
			c-0.237-0.799-0.356-1.668-0.356-2.605V24.994L135.714,24.994z M138.611,25.244c0,0.572,0.055,1.111,0.162,1.615
			c0.106,0.507,0.277,0.949,0.513,1.33c0.233,0.383,0.534,0.684,0.899,0.901c0.366,0.22,0.813,0.328,1.336,0.328
			c0.652,0,1.188-0.146,1.604-0.437c0.418-0.291,0.75-0.674,0.996-1.15v-5.51c-0.246-0.478-0.58-0.855-1.002-1.133
			c-0.421-0.278-0.946-0.417-1.574-0.417c-0.524,0-0.974,0.111-1.342,0.334c-0.37,0.223-0.672,0.525-0.907,0.906
			c-0.234,0.381-0.406,0.829-0.52,1.341c-0.11,0.514-0.166,1.06-0.166,1.641V25.244L138.611,25.244z"/>
		<path fill="#222222" d="M152.282,18.637l0.084,1.348c0.429-0.501,0.952-0.891,1.567-1.169c0.616-0.278,1.334-0.417,2.153-0.417
			c0.787,0,1.491,0.157,2.111,0.471s1.097,0.817,1.431,1.509c0.43-0.604,0.973-1.086,1.629-1.443
			c0.656-0.358,1.434-0.537,2.332-0.537c0.668,0,1.266,0.089,1.789,0.269c0.523,0.179,0.969,0.461,1.33,0.847
			c0.361,0.386,0.641,0.881,0.835,1.485s0.292,1.332,0.292,2.182v8.362h-2.898V23.17c0-0.477-0.054-0.868-0.16-1.174
			c-0.107-0.306-0.264-0.551-0.465-0.734c-0.203-0.183-0.445-0.31-0.729-0.381c-0.281-0.072-0.604-0.107-0.961-0.107
			c-0.66,0-1.198,0.177-1.616,0.531c-0.417,0.354-0.71,0.817-0.877,1.388c0,0.041,0.003,0.082,0.007,0.125s0.006,0.086,0.006,0.125
			v8.602h-2.897v-8.338c0-0.454-0.054-0.835-0.161-1.145s-0.263-0.561-0.466-0.751c-0.202-0.191-0.447-0.328-0.733-0.412
			c-0.285-0.084-0.607-0.125-0.966-0.125c-0.621,0-1.132,0.127-1.532,0.381c-0.402,0.255-0.715,0.601-0.938,1.038v9.352h-2.898
			V18.637H152.282z"/>
		<path fill="#222222" d="M170.33,15.285c0-0.445,0.143-0.815,0.424-1.109c0.282-0.294,0.686-0.441,1.211-0.441
			c0.523,0,0.93,0.147,1.217,0.441c0.286,0.294,0.43,0.664,0.43,1.109c0,0.438-0.144,0.801-0.43,1.091
			c-0.287,0.291-0.691,0.436-1.217,0.436s-0.929-0.145-1.211-0.436C170.473,16.086,170.33,15.722,170.33,15.285z M173.408,31.543
			h-2.899V18.637h2.899V31.543z"/>
		<path fill="#222222" d="M178.766,18.637l0.084,1.491c0.453-0.549,0.998-0.975,1.635-1.276c0.636-0.302,1.344-0.454,2.123-0.454
			c0.619,0,1.183,0.085,1.688,0.256c0.505,0.171,0.936,0.448,1.294,0.829c0.356,0.382,0.634,0.879,0.829,1.491
			c0.193,0.612,0.292,1.356,0.292,2.23v8.338h-2.897V23.18c0-0.445-0.051-0.821-0.149-1.125c-0.101-0.306-0.244-0.555-0.437-0.746
			c-0.189-0.191-0.427-0.328-0.709-0.412c-0.281-0.084-0.605-0.125-0.973-0.125c-0.597,0-1.115,0.143-1.557,0.429
			c-0.442,0.286-0.793,0.672-1.057,1.157v9.185h-2.897V18.637H178.766z"/>
		<path fill="#222222" d="M194.857,31.781c-0.955,0-1.813-0.159-2.578-0.477c-0.762-0.318-1.41-0.757-1.943-1.313
			c-0.531-0.558-0.941-1.218-1.229-1.979c-0.287-0.764-0.43-1.587-0.43-2.47v-0.478c0-1.019,0.15-1.938,0.453-2.761
			c0.303-0.823,0.717-1.523,1.24-2.1c0.523-0.576,1.145-1.022,1.854-1.336c0.713-0.314,1.479-0.471,2.297-0.471
			c0.938,0,1.754,0.157,2.445,0.471s1.266,0.753,1.719,1.318c0.453,0.564,0.791,1.236,1.014,2.016
			c0.223,0.779,0.334,1.634,0.334,2.564v1.239H191.6c0.039,0.501,0.146,0.962,0.315,1.384s0.403,0.785,0.696,1.092
			c0.296,0.307,0.644,0.547,1.045,0.723c0.4,0.175,0.857,0.262,1.365,0.262c0.717,0,1.338-0.143,1.867-0.429
			c0.528-0.286,0.987-0.681,1.377-1.183l1.563,1.492c-0.206,0.311-0.463,0.609-0.771,0.899c-0.306,0.291-0.662,0.549-1.072,0.774
			c-0.409,0.229-0.873,0.41-1.391,0.549C196.082,31.712,195.501,31.781,194.857,31.781z M194.512,20.724
			c-0.796,0-1.438,0.278-1.927,0.835s-0.802,1.332-0.937,2.326h5.521V23.67c-0.023-0.382-0.085-0.749-0.186-1.104
			c-0.1-0.354-0.252-0.667-0.459-0.942c-0.207-0.274-0.476-0.493-0.805-0.656C195.391,20.805,194.988,20.724,194.512,20.724z"/>
	</g>
</g>
</svg>
