<?xml version="1.0" encoding="utf-8"?>
<!-- Generator: Adobe Illustrator 16.0.0, SVG Export Plug-In . SVG Version: 6.00 Build 0)  -->
<!DOCTYPE svg PUBLIC "-//W3C//DTD SVG 1.1//EN" "http://www.w3.org/Graphics/SVG/1.1/DTD/svg11.dtd">
<svg version="1.1" id="Camada_1" xmlns="http://www.w3.org/2000/svg" xmlns:xlink="http://www.w3.org/1999/xlink" x="0px" y="0px"
	 width="1024px" height="1024px" viewBox="-490.229 -490 1024 1024" enable-background="new -490.229 -490 1024 1024"
	 xml:space="preserve">
<g>
	<g>
		<path d="M19.724-148.915c-79.063,0-156.464,54.205-217.946,152.629c-50.418,80.711-87.044,185.842-106.043,302.443
			c27.174-70.246,61.98-131.145,102.887-179.391C-136.625,50.393-60.169,10.022,19.723,10.02
			c80.234,0,156.963,40.691,221.886,117.671c40.575,48.111,75.1,108.652,102.091,178.412
			C324.792,190.094,288.45,85.451,238.38,4.856C176.776-94.304,99.123-148.915,19.724-148.915z"/>
	</g>
	<g>
		<path d="M-240.557-22.729c34.219-54.78,73.263-97.771,116.045-127.777c45.717-32.064,94.244-48.322,144.235-48.322
			c50.182,0,98.882,16.378,144.744,48.68c42.917,30.226,82.049,73.515,116.31,128.666
			C343.822,79.996,386.36,216.203,401.876,365.023C483.853,274.242,533.771,153.953,533.771,22c0-282.773-229.22-512-511.994-512
			c-282.772,0-512.005,229.226-512.005,512c0,129.971,48.433,248.629,128.229,338.918
			C-346.07,213.084-303.413,77.896-240.557-22.729z"/>
	</g>
	<g>
		<path d="M330.113,430.137c-26.765-110.293-70.564-203.75-126.662-270.266C148.312,94.492,84.78,59.934,19.724,59.934
			c-64.767,0.002-128.058,34.275-183.03,99.111c-55.916,65.949-99.715,158.707-126.663,268.246l-1.677-0.412
			C-205.033,494.025-96.298,534,21.777,534c116.331,0,223.595-38.803,309.568-104.162L330.113,430.137z"/>
	</g>
</g>
</svg>
